<svg viewBox="0 0 250 175" width="500" height="350">
    <rect fill="#5b06a4" height="100%" width="100%"></rect>
    <defs id="SvgjsDefs1288"></defs>
    <g id="SvgjsG1289" featurekey="root" fill="#5b06a4"></g>
    <g id="SvgjsG1290" featurekey="container1" fill="#e0fbf7" transform="matrix(1,0,0,1,0,5)">
        <rect xmlns="http://www.w3.org/2000/svg" x="10" y="5" width="5" height="153"></rect>
        <rect xmlns="http://www.w3.org/2000/svg" x="235" y="5" width="5" height="153"></rect>
    </g>
    <g id="SvgjsG1291" featurekey="text1" fill="#e0fbf7" transform="matrix(8.338897818418348,0,0,8.338897818418348,22.331560213306208,-46.71115868956875)">
        <path d="M12.98 23.7 q0 0.12 -0.09 0.21 t-0.21 0.09 q-0.24 0 -0.3 -0.2 l-5.82 -14.68 l-0.66 1.7 q0.08 0.16 0.34 0.8 t0.64 1.57 t0.82 2.06 t0.9 2.29 t0.89 2.26 t0.76 1.96 t0.53 1.39 t0.2 0.55 q0 0.22 -0.2 0.28 q-0.04 0 -0.06 0.01 t-0.06 0.01 q-0.2 0 -0.28 -0.2 l-4.8 -12.12 l-4.66 12.12 q-0.08 0.2 -0.3 0.2 q-0.04 0 -0.05 -0.01 t-0.05 -0.01 q-0.2 -0.06 -0.2 -0.3 q0 -0.02 0.24 -0.66 t0.63 -1.66 t0.9 -2.34 t1.04 -2.71 t1.06 -2.75 t0.96 -2.49 t0.73 -1.9 t0.38 -0.99 q0.08 -0.18 0.3 -0.18 t0.28 0.18 q0.08 0.22 0.39 0.99 t0.75 1.9 t0.99 2.49 t1.1 2.75 t1.08 2.71 t0.93 2.35 t0.65 1.67 t0.25 0.66 z M24.28 19.04 q0 1.02 -0.39 1.92 t-1.06 1.58 t-1.57 1.07 t-1.92 0.39 q-0.98 0 -1.9 -0.38 t-1.6 -1.08 q-0.1 -0.1 -0.1 -0.2 t0.11 -0.21 t0.23 -0.11 q0.08 0 0.32 0.21 t0.65 0.47 t0.98 0.47 t1.33 0.21 q0.9 0 1.69 -0.34 t1.38 -0.93 t0.93 -1.38 t0.34 -1.69 l0 -10.74 q0 -0.12 0.09 -0.21 t0.21 -0.09 t0.2 0.09 t0.08 0.21 l0 10.74 z"></path>
    </g>
</svg>